<svg width="80" height="80" xmlns="http://www.w3.org/2000/svg">
  <defs>
    <!-- Gradient for 3D effect -->
    <radialGradient id="chipGradient_5" cx="30%" cy="30%">
      <stop offset="0%" style="stop-color:#DC2626;stop-opacity:1" />
      <stop offset="70%" style="stop-color:#DC2626;stop-opacity:0.8" />
      <stop offset="100%" style="stop-color:#000000;stop-opacity:0.3" />
    </radialGradient>

    <!-- Inner ring gradient -->
    <radialGradient id="innerRing_5" cx="50%" cy="50%">
      <stop offset="0%" style="stop-color:#FFFFFF;stop-opacity:0.2" />
      <stop offset="100%" style="stop-color:#FFFFFF;stop-opacity:0.6" />
    </radialGradient>
  </defs>

  <!-- Outer ring (shadow) -->
  <circle cx="40" cy="40" r="38" fill="#000000" opacity="0.3"/>

  <!-- Main chip body -->
  <circle cx="40" cy="40" r="36" fill="url(#chipGradient_5)" 
          stroke="#000000" stroke-width="1"/>

  <!-- Inner decorative ring -->
  <circle cx="40" cy="40" r="28" fill="none" 
          stroke="url(#innerRing_5)" stroke-width="2"/>

  <!-- Value text -->
  <text x="40" y="35" font-family="Arial, sans-serif" font-size="16" font-weight="bold"
        text-anchor="middle" dominant-baseline="middle" fill="#FFFFFF">
    $5
  </text>

  <!-- Secondary text -->
  <text x="40" y="52" font-family="Arial, sans-serif" font-size="10"
        text-anchor="middle" dominant-baseline="middle" fill="#FFFFFF" opacity="0.8">
    CASINO
  </text>

  <!-- Edge notches for texture -->
  <g transform="translate(40, 40)">
    <g stroke="#FFFFFF" stroke-width="1" opacity="0.4">
      <line x1="0" y1="-34" x2="0" y2="-30" transform="rotate(0)"/>
      <line x1="0" y1="-34" x2="0" y2="-30" transform="rotate(45)"/>
      <line x1="0" y1="-34" x2="0" y2="-30" transform="rotate(90)"/>
      <line x1="0" y1="-34" x2="0" y2="-30" transform="rotate(135)"/>
      <line x1="0" y1="-34" x2="0" y2="-30" transform="rotate(180)"/>
      <line x1="0" y1="-34" x2="0" y2="-30" transform="rotate(225)"/>
      <line x1="0" y1="-34" x2="0" y2="-30" transform="rotate(270)"/>
      <line x1="0" y1="-34" x2="0" y2="-30" transform="rotate(315)"/>
    </g>
  </g>
</svg>